# xmcd
#
# Track frame offsets:
#	150
#	12251
#	24559
#	39141
#	51206
#	66028
#	77856
#	89413
#	101236
#	119111
#	129030
#	142557
#	161794
#	172302
#	185210
#	204925
#	217751
#	230269
#	241513
#	251925
#	270553
#	284096
#	293461
#	305834
#
# Disc length: 4208 seconds
#
# Revision: 1
# Processed by: cddbd v1.5.1PL0 Copyright (c) Steve Scherf et al.
# Submitted via: audiograbber 1.80.04
#
DISCID=58106e18
DTITLE=Various Artist - Country Classics
DYEAR=1900
DGENRE=Country
TTITLE0=Tammy Wynette - Stand By Your Man
TTITLE1=Merle Haggard - Okie From Muskogee
TTITLE2=J. Denver - Country Roads
TTITLE3=Eddy Arnold - Make the World Go Away
TTITLE4=George Jones - He Stopped Loving Her Today
TTITLE5=Skeeter Davis - The End of the World
TTITLE6=Frankie Laine - Mule Train
TTITLE7=Heenson Cargill - Skip a Rope
TTITLE8=Marty Robbins - Big Iron
TTITLE9=H. Williams - Honky Tonk Blues
TTITLE10=Claude King - Wolverton Mountain
TTITLE11=Kenny Rogers - She Believes in Me
TTITLE12=Connie Smith - Once a Day
TTITLE13=Merle Hafggard - Fightin' Side of Me
TTITLE14=Marty Robbins - El Paso
TTITLE15=Connie Smith - The Hurtin's All Over
TTITLE16=Bobby Bare - Detroit City
TTITLE17=Buck Owens - Cryin' Time
TTITLE18=E. Weissberg and S. Mandell - Dueling Banjos
TTITLE19=Ronnie MIlsap - Lost in the Fifties
TTITLE20=Patsy Cline - She's Got You
TTITLE21=Frankie Laine - Rawhide
TTITLE22=Brenda Lee - All Alone Am I
TTITLE23=Merle Haggard - Mama Tried
EXTD=
EXTT0=
EXTT1=
EXTT2=
EXTT3=
EXTT4=
EXTT5=
EXTT6=
EXTT7=
EXTT8=
EXTT9=
EXTT10=
EXTT11=
EXTT12=
EXTT13=
EXTT14=
EXTT15=
EXTT16=
EXTT17=
EXTT18=
EXTT19=
EXTT20=
EXTT21=
EXTT22=
EXTT23=
PLAYORDER=
